<?xml version="1.0" encoding="utf-8"?>
<!-- Generator: Adobe Illustrator 21.1.0, SVG Export Plug-In . SVG Version: 6.00 Build 0)  -->
<svg version="1.1" id="Layer_1" xmlns="http://www.w3.org/2000/svg" xmlns:xlink="http://www.w3.org/1999/xlink" x="0px" y="0px"
	 viewBox="0 0 673.7 125.8" style="enable-background:new 0 0 673.7 125.8;" xml:space="preserve">
<style type="text/css">
	.st0{fill:#FFD266;}
</style>
<g>
	<g>
		<path d="M53.8,25.6c25.1,0,30.7,20,29.7,30.1l-8.7,1.5c0.7-7.3-2.9-23.7-21.9-23.7c-19.7,0-36.7,17.8-36.7,46.9
			c0,22.4,12.2,33.5,28.6,33.5c13.8,0,23.7-8.9,28.3-14.7l4.9,5.6c-3.5,4.3-15.1,17-34.4,17C21.1,122,7,106.9,7,81.3
			C7,47.6,27.7,25.6,53.8,25.6L53.8,25.6z"/>
		<path d="M133.8,53.9l-3.2,8.8c-1-0.6-3.1-1.2-5.7-1.2c-9.4,0-17.8,11-19.6,22.4l-4.7,37.5h-8.7l8.5-67.6l6.2-0.3
			c0.2,5.7-0.4,12.9-0.9,17.2h0.3c3.6-9.4,10.6-17.7,20.5-17.7C129.3,52.9,132,53.4,133.8,53.9z"/>
		<path d="M194.7,108.7c-0.5,3.9,0.7,5.4,3.7,5.4c0.7,0,1.7-0.1,2.3-0.3l-0.3,7.4c-0.2,0.1-2.7,0.7-5.5,0.7c-5.8,0-9.7-2.9-8.7-10.1
			l0.8-5.8h-0.2c-4.7,9.1-14.1,16-26.3,16c-16,0-26.2-11.8-26.2-29.6c0-23.2,14.9-39.5,35.2-39.5c13.1,0,20.6,7.8,22.5,17.7h0.1
			c0.5-4.2,1.9-11.6,3.4-16.9h6.3L194.7,108.7L194.7,108.7z M162.7,114.5c14.1,0,23.2-12.4,25.3-22.8l0.4-3.6l0.7-3.9l-0.2,0.2
			c1.3-10.5-4.1-24.2-19.8-24.2c-14.9,0-25.9,12.9-25.9,31.2C143.2,105.4,150.6,114.5,162.7,114.5L162.7,114.5z"/>
		<path d="M257.8,76.4c0.3-0.8,0.9-2.8,0.9-4.8c0-7.1-5.8-11.2-14.3-11.2c-10,0-16.3,5.2-16.3,12.6c0,15.8,36.4,6.4,36.4,28.3
			c0,12.9-11.3,20.7-27.8,20.7c-16.2,0-23.3-7.8-25.3-10l6-5.9c1.5,1.8,8.3,8.4,20.2,8.4c11.3,0,17.9-5,17.9-12.3
			c0-15-36.3-7.1-36.3-28.4c0-12,10.9-20.9,26.3-20.9c13,0,21.6,6.7,21.6,16.7c0,3.3-1.1,6.2-1.1,6.2L257.8,76.4L257.8,76.4z"/>
		<path d="M341.1,114.1c1,0,2-0.1,2.5-0.3l-0.3,7.5c-1.2,0.3-3.1,0.7-6.2,0.7c-6.4,0-9.3-4.4-8.5-10.7l3.8-31.5
			c1.4-11.6-4.1-19.5-15.1-19.5c-13.7,0-22.5,12-24.5,22.3l-4.9,38.6h-8.8l12.8-101.9h8.6l-6.2,49.2h0.1
			c4.8-8.4,13.4-15.6,25.4-15.6c15.4,0,23.4,11,21.4,26.9l-3.7,29.6C337.1,112.5,338.6,114.1,341.1,114.1L341.1,114.1z"/>
	</g>
	<g>
		<path d="M436.5,61c0,24.3-18,35.1-38.5,35.1h-14.7v25.1h-27V25.9h38.1C420.2,25.9,436.5,36.9,436.5,61z M409.2,61
			c0-8.4-5.6-14.4-17.9-14.4h-8.1v28.9h9.1C403.1,75.5,409.2,70.7,409.2,61z"/>
		<path d="M514.3,120.6c0,0-4.9,1.4-11.8,1.4c-10.8,0-16.3-3.6-18.5-10.1h-0.3c-2.3,4.6-7.7,10.1-20.2,10.1
			c-14.6,0-23.1-7.1-23.1-18.6c0-18.8,20.8-21.4,42-22.5v-1.9c0-4.8-2.7-8.2-8.4-8.2c-5.8,0-8.4,2.2-8.4,5.3c0,0.4,0.1,1.2,0.4,1.6
			l-21.9,3.8c0,0-1-3.2-1-7.4c0-13.4,12.1-21.9,32.1-21.9c21.5,0,32.3,10.3,32.3,28.6v17.8c0,2.6,1.3,3.6,3.5,3.6
			c0.9,0,1.6-0.1,2.5-0.4L514.3,120.6z M482.4,96.7v-4.6c-10,0.9-17.3,1.3-17.3,6.8c0,3.6,3.2,5.2,6.5,5.2
			C477.8,104,482.4,101.4,482.4,96.7z"/>
		<path d="M593.3,19.3v101.9l-22.1,0.7c-1.2-3.8-2.3-10.1-2.3-11.4h-0.4c-3.5,6.9-9.8,11.5-20.1,11.5c-17.8,0-28.2-15-28.2-34.2
			c0-24,14.4-35.7,29.5-35.7c8.8,0,14.3,3,17.6,7.2V19.3H593.3z M567.3,90.3v-6.2c0-5.2-4.8-10.1-10.7-10.1
			c-6.1,0-10.1,5.1-10.1,13.9c0,7.5,4,12.4,10.1,12.4C561.9,100.3,567.3,96.4,567.3,90.3z"/>
		<path d="M642.5,74.6c0-3.9-2.2-6.8-7.2-6.8c-4.9,0-7.2,2.2-7.2,4.9c0,11.6,38.7,1.6,38.7,28c0,12.3-10.7,21.4-31.2,21.4
			c-24.1,0-33.9-10.1-33.9-10.1l10.7-14.9c0,0,11.5,8.4,21.8,8.4c4,0,6.1-0.7,6.1-2.5c0-8.1-35.4-3.5-35.4-28
			c0-15,12.4-22.8,31.5-22.8c16.9,0,29,7.7,29,18.5c0,2.7-0.6,4.5-0.6,4.5l-22.4,1.2C642.3,76.3,642.5,75.6,642.5,74.6z"/>
	</g>
	<g>
		<path class="st0" d="M116.4,23.9c0.1-0.3,0.3-1,0.3-1.7c0-2.5-2.1-4-5.1-4c-3.6,0-5.8,1.8-5.8,4.5c0,5.6,12.9,2.3,12.9,10
			c0,4.6-4,7.3-9.8,7.3c-5.7,0-8.2-2.8-8.9-3.5l2.1-2.1c0.5,0.6,2.9,3,7.2,3c4,0,6.3-1.8,6.3-4.4c0-5.3-12.9-2.5-12.9-10.1
			c0-4.2,3.8-7.4,9.3-7.4c4.6,0,7.7,2.4,7.7,5.9c0,1.2-0.4,2.2-0.4,2.2L116.4,23.9L116.4,23.9z"/>
		<path class="st0" d="M129.1,31.3c-0.5,4,0.6,6.1,4,6.1c2.7,0,4.7-1.5,4.7-1.5l0.7,2.5c0,0-2.4,1.7-6,1.7c-5.3,0-7.2-3-6.5-8.6
			l1.6-13h-3.7l0.3-2.5h3.7l0.9-7.3l3.1-0.2l-0.9,7.5h9.2l-0.3,2.5h-9.2L129.1,31.3z"/>
		<path class="st0" d="M162.3,35.3c-0.2,1.4,0.3,1.9,1.3,1.9c0.3,0,0.6-0.1,0.8-0.1l-0.1,2.6c-0.1,0-0.9,0.2-1.9,0.2
			c-2,0-3.4-1-3.1-3.6l0.2-1.8h-0.1c-1.6,3-4.6,5.4-8.6,5.4c-5.4,0-8.1-3.8-7.4-9.5l1.8-14.7h3.1l-1.8,14.7
			c-0.5,4.1,1.3,6.8,5.2,6.8c4.8,0,7.9-4.8,8.4-8.5l1.6-13.1h3.1L162.3,35.3L162.3,35.3z"/>
		<path class="st0" d="M191.1,35.3c-0.2,1.4,0.3,1.9,1.3,1.9c0.3,0,0.6-0.1,0.8-0.1l-0.1,2.6c-0.1,0-1,0.2-1.9,0.2
			c-2.1,0-3.4-1-3.1-3.6l0.3-2.1h-0.1c-1.7,3.2-4.9,5.7-9.3,5.7c-5.7,0-9.2-4.2-9.2-10.5c0-8.3,5.3-14,12.5-14c4.1,0,6.7,2.1,7.7,5
			l2.1-16.7h3.1L191.1,35.3L191.1,35.3z M179.8,37.3c5.3,0,8.6-4.9,9.1-8.6v0l0.3-2.2c0.4-3.7-1.6-8.4-7.1-8.4
			c-5.3,0-9.2,4.6-9.2,11.1C172.9,34.1,175.5,37.3,179.8,37.3L179.8,37.3z"/>
		<path class="st0" d="M211.1,15.5c5.5,0,8.6,3.8,8.6,9.3c0,2-0.5,3.6-0.5,3.6h-17.5c0,0.3,0,0.5,0,0.8c0,4.9,2.7,8.1,7.5,8.1
			c3.3,0,5.6-1.5,7.1-3.1l1.6,1.8c-2.3,2.7-5.7,4-9.3,4c-6.3,0-10.1-4.2-10.1-10.5C198.5,21.3,204,15.5,211.1,15.5L211.1,15.5z
			 M210.8,18.2c-4.2,0-7.7,3.2-8.8,7.9h14.5c0.1-0.4,0.1-0.8,0.1-1.4C216.6,20.6,214.4,18.2,210.8,18.2L210.8,18.2z"/>
		<path class="st0" d="M245.7,37.2c0.4,0,0.7-0.1,0.9-0.1l-0.1,2.6c-0.4,0.1-1.1,0.2-2.2,0.2c-2.3,0-3.3-1.5-3-3.8l1.4-11.1
			c0.5-4.1-1.4-6.9-5.3-6.9c-5,0-8.1,4.6-8.7,8.2l-1.7,13.3h-3.1l3-23.9l2.2-0.1c0.1,2-0.1,4.6-0.3,6.1h0.1c1.6-3.3,4.9-6.3,9.4-6.3
			c5.4,0,8.3,3.9,7.6,9.5l-1.3,10.5C244.3,36.6,244.9,37.2,245.7,37.2L245.7,37.2z"/>
		<path class="st0" d="M256.7,31.3c-0.5,4,0.6,6.1,4,6.1c2.7,0,4.7-1.5,4.7-1.5l0.7,2.5c0,0-2.4,1.7-6,1.7c-5.3,0-7.2-3-6.5-8.6
			l1.6-13h-3.7l0.3-2.5h3.7l0.9-7.3l3.1-0.2l-0.9,7.5h9.2l-0.3,2.5h-9.2L256.7,31.3z"/>
	</g>
</g>
</svg>
