<?xml version="1.0" encoding="utf-8"?>
<!-- Generator: Adobe Illustrator 21.1.0, SVG Export Plug-In . SVG Version: 6.00 Build 0)  -->
<svg version="1.1" id="Layer_1" xmlns="http://www.w3.org/2000/svg" xmlns:xlink="http://www.w3.org/1999/xlink" x="0px" y="0px"
	 viewBox="0 0 854.6 376.6" style="enable-background:new 0 0 854.6 376.6;" xml:space="preserve">
<style type="text/css">
	.st0{fill:#ED1C24;}
	.st1{fill:#414042;}
	.st2{fill:#F7941E;}
</style>
<g>
	<path class="st0" d="M10.3,302.1c0,0,52.1-0.3,130.3-0.8c78.2-0.2,182.4-0.4,286.7-0.6c104.2,0.2,208.5,0.5,286.7,0.6
		c78.2,0.5,130.3,0.8,130.3,0.8s-52.1,0.3-130.3,0.8c-78.2,0.2-182.4,0.4-286.7,0.6c-104.2-0.2-208.5-0.5-286.7-0.6
		C62.5,302.4,10.3,302.1,10.3,302.1z"/>
	<g>
		<g>
			<path class="st1" d="M435.6,173c-3-37.6-6-75.2-9-112.8c21.3-10.9,42.1-21.6,62.8-32.2c21,16.6,29.8,55.3,19.9,86.3
				C498.9,146.5,468.1,171.2,435.6,173z"/>
			<path class="st2" d="M341.9,100.6c0.4,32.4,40.2,71.8,72.2,71.5c-2-35-3.9-70-5.9-105.9L341.9,100.6z"/>
			<path class="st0" d="M470.2,11.5c-43.5,22.6-86,44.6-128.7,66.8c-1.4-18.4,13.4-49.6,39.4-65C409.7-3.9,439.1-4.3,470.2,11.5z"/>
		</g>
		<g>
			<g>
				<path class="st0" d="M32.7,192.5H0v-2.4h68.2v2.4H35.4v90.2h-2.6V192.5z"/>
				<path class="st0" d="M81.1,184v49.3c2.4-7.1,8.8-17.5,24.8-17.5c10.5,0,22.1,5.9,22.1,24.8v42.1h-2.8v-41.8
					c0-13-6.6-22.6-19.7-22.6c-16,0-24.4,12.1-24.4,28v36.4h-2.6V184H81.1z"/>
				<path class="st0" d="M148.4,249.3c0,20.4,10.1,32.3,24.3,32.3c12.9,0,19.1-7,22.9-15.5h2.6c-3.9,10.3-11.4,17.9-25.4,17.9
					c-20.1,0-27.1-18-27.1-34.2c0-20.9,11.3-34,27.3-34c20.2,0,26.5,17.7,26.5,30.2c0,1.4,0,1.8-0.1,3.3H148.4z M197.1,247
					c0-15.8-7.9-28.8-24.2-28.8c-14.5,0-23.7,12-24.4,28.8H197.1z"/>
				<path class="st2" d="M217.8,191.2h12.1v38.2h47.6v-38.2h12.2v91.5h-12.2v-42.8h-47.6v42.8h-12.1V191.2z"/>
				<path class="st2" d="M360.8,268.1c0,6.2,0.5,12.6,0.9,14.6h-11c-0.5-1.4-0.9-4.6-1.1-8.7c-2.4,4.3-7.8,10.3-20.6,10.3
					c-15.8,0-22.5-10.3-22.5-20.4c0-14.9,11.7-21.7,31.5-21.7h11.3v-5.7c0-5.9-1.8-13-14.3-13c-11,0-13,5.5-14.2,10.6h-11.2
					c0.9-9.2,6.6-19.7,25.8-19.7c16.3,0,25.4,6.7,25.4,21.8V268.1z M349.5,250.2h-10.8c-13.3,0-20.4,3.7-20.4,13c0,7,4.7,12,13,12
					c16,0,18.1-10.8,18.1-22.9V250.2z"/>
				<path class="st2" d="M386.9,263.6c1.8,7.2,7.2,11.6,16.3,11.6c9.7,0,13.5-4.2,13.5-10.2c0-6.3-3-9.2-15.8-12.2
					c-19.1-4.6-23-10.5-23-19.6c0-9.3,7-18.7,24.1-18.7c17.2,0,24.3,10,25.1,19.2h-11c-1.1-4.2-4.3-10.3-14.5-10.3
					c-9.3,0-12.2,4.5-12.2,8.8c0,5,2.8,7.5,15,10.4c20.2,4.9,24.3,11.6,24.3,21.4c0,11.7-9.3,20.2-25.9,20.2
					c-17.2,0-25.8-8.7-27.5-20.6H386.9z"/>
				<path class="st2" d="M453.7,186.2v39.7c3.3-5.9,9.5-11.4,20.8-11.4c10.6,0,22.5,5.8,22.5,25.6v42.6h-11.6v-40.6
					c0-11.3-4.7-17.6-14.5-17.6c-12,0-17.2,7.9-17.2,21.8v36.4h-11.6v-96.5H453.7z"/>
				<path class="st2" d="M513.9,186.2h11.6v39.3c2.9-5.7,9.1-11,21.2-11c16.8,0,27.3,13.8,27.3,33.5c0,20.2-10.3,36.3-29,36.3
					c-10.6,0-16.3-3.9-19.6-10.4c0,3.4-0.3,7-0.5,8.8h-11c0.1-7.5,0.1-15,0.1-22.3V186.2z M544,224.2c-14.2,0-19.2,9.5-19.2,25.4
					c0,13.9,4.5,25,18.5,25c11.8,0,18.8-10.1,18.8-26.3C562.1,233.8,555.5,224.2,544,224.2z"/>
				<path class="st2" d="M587.2,234.2c0-9.3-0.1-14.6-0.1-18.1h11.3c0.1,1.8,0.4,7.1,0.4,13.5c3.4-8.9,11.3-14.9,22.3-15.1v11.4
					c-13.7,0.4-22.3,7.6-22.3,24.4v32.3h-11.6V234.2z"/>
				<path class="st2" d="M689.7,249.2c0,19.3-11,35.1-31.4,35.1c-19.1,0-30.6-14.7-30.6-34.8c0-19.7,11.3-35,31.4-35
					C677.6,214.5,689.7,228.3,689.7,249.2z M639.5,249.3c0,14.7,7.4,25.4,19.3,25.4c12.1,0,19.1-10.1,19.1-25.2
					c0-15-6.8-25.4-19.3-25.4C646.1,224.1,639.5,234.2,639.5,249.3z"/>
				<path class="st2" d="M707.1,216.1c8.3,31.3,13,49.2,14.2,56h0.1c1.2-6.2,5.9-22.9,15.4-56h11.3c10.4,37.7,13.5,48.6,14.6,54.7
					h0.1c1.7-7.1,4.3-17.1,14.7-54.7h11.7l-20.5,66.6h-12.5c-6.4-24.3-12.9-46.8-14.3-54h-0.1c-1.2,7.2-7.1,27.6-14.6,54h-12.9
					L695,216.1H707.1z"/>
				<path class="st2" d="M799.8,232.9c0-5.8,0-11.7-0.1-16.8h11.2c0.4,2,0.5,8.9,0.5,10.9c2.6-5.7,8-12.5,20.9-12.5
					c12.6,0,22.3,7.6,22.3,25.4v42.8h-11.6v-41.4c0-10.1-3.9-16.8-14.1-16.8c-12.6,0-17.6,9.6-17.6,23v35.2h-11.6V232.9z"/>
			</g>
		</g>
	</g>
	<g>
		<path d="M86.9,332.6h4.8l11.5,26.4h-4.7l-3.3-7.9H82.8l-3.4,7.9H75L86.9,332.6z M94,348.1l-4.9-11.7l-5.1,11.7H94z"/>
		<path d="M113.2,333.9c0.9-1.1,2.7-1.7,5.2-1.7c0.2,0,0.5,0,0.8,0s0.6,0,0.9,0.1v2.9c-0.4,0-0.7,0-0.9,0s-0.4,0-0.5,0
			c-1.2,0-1.9,0.3-2.1,0.8c-0.2,0.5-0.3,1.8-0.3,3.9h3.9v2.5h-3.9v16.6h-3.8v-16.6h-3.2v-2.5h3.2v-3
			C112.4,335.5,112.7,334.5,113.2,333.9z"/>
		<path d="M131.8,333.9c0.9-1.1,2.6-1.7,5.2-1.7c0.2,0,0.5,0,0.8,0c0.3,0,0.6,0,0.9,0.1v2.9c-0.4,0-0.7,0-0.9,0c-0.2,0-0.4,0-0.5,0
			c-1.2,0-1.9,0.3-2.1,0.8s-0.3,1.8-0.3,3.9h3.9v2.5h-3.9v16.6h-3.8v-16.6h-3.2v-2.5h3.2v-3C131,335.5,131.3,334.5,131.8,333.9z"/>
		<path d="M163.7,341.6c2,1.7,3.1,4.1,3.1,7.3c0,3.1-0.9,5.7-2.7,7.7c-1.8,2-4.6,3-8.4,3c-3.2,0-5.7-0.9-7.5-2.7
			c-1.9-1.8-2.8-4.2-2.8-7.2c0-3.2,1-5.8,2.9-7.7s4.6-2.9,7.9-2.9C159.2,339.2,161.6,340,163.7,341.6z M161.3,354.4
			c0.9-1.6,1.4-3.4,1.4-5.4c0-1.8-0.3-3.3-1-4.4c-1.1-1.8-2.9-2.7-5.6-2.7c-2.3,0-4,0.8-5.1,2.3c-1.1,1.5-1.6,3.3-1.6,5.5
			c0,2,0.5,3.7,1.6,5.1c1.1,1.4,2.8,2,5.1,2C158.6,356.8,160.3,356,161.3,354.4z"/>
		<path d="M176.7,339.7h3.7v3.3c0.3-0.6,1-1.4,2.2-2.4c1.2-0.9,2.5-1.4,4.1-1.4c0.1,0,0.2,0,0.4,0c0.2,0,0.5,0,0.9,0.1v3.4
			c-0.2,0-0.4-0.1-0.6-0.1c-0.2,0-0.4,0-0.6,0c-2,0-3.5,0.5-4.5,1.6c-1,1-1.6,2.3-1.6,3.6v11.1h-3.9V339.7z"/>
		<path d="M209.1,340.3c0.7,0.4,1.5,1,2.3,1.9v-9.7h3.7v26.5h-3.5v-2.7c-0.9,1.2-2,2-3.2,2.6s-2.6,0.8-4.2,0.8
			c-2.6,0-4.8-0.9-6.7-2.7c-1.9-1.8-2.8-4.2-2.8-7.2c0-2.8,0.9-5.2,2.6-7.3c1.7-2.1,4.2-3.1,7.3-3.1
			C206.4,339.4,207.9,339.7,209.1,340.3z M200.4,354.7c1,1.4,2.7,2.1,5,2.1c1.8,0,3.3-0.6,4.4-1.9c1.2-1.3,1.7-3.1,1.7-5.5
			c0-2.4-0.6-4.2-1.8-5.4c-1.2-1.2-2.7-1.8-4.4-1.8c-1.9,0-3.5,0.6-4.7,1.9c-1.2,1.2-1.8,3.1-1.8,5.5
			C198.8,351.6,199.4,353.3,200.4,354.7z"/>
		<path d="M238.2,347.3c0.9-0.1,1.5-0.4,1.8-0.9c0.2-0.3,0.3-0.7,0.3-1.2c0-1.1-0.5-1.9-1.4-2.4c-0.9-0.5-2.3-0.7-4-0.7
			c-2,0-3.5,0.5-4.3,1.4c-0.5,0.5-0.8,1.3-0.9,2.3H226c0.1-2.4,1-4,2.8-5c1.8-0.9,3.8-1.4,6.2-1.4c2.7,0,4.9,0.4,6.6,1.3
			c1.7,0.9,2.5,2.2,2.5,4v11.1c0,0.3,0.1,0.6,0.2,0.8s0.5,0.3,1,0.3c0.2,0,0.4,0,0.6,0c0.2,0,0.4,0,0.7-0.1v2.4
			c-0.6,0.1-1.1,0.2-1.4,0.3c-0.3,0-0.7,0.1-1.3,0.1c-1.3,0-2.3-0.4-2.9-1.2c-0.3-0.4-0.5-1-0.7-1.8c-0.8,0.9-1.9,1.6-3.4,2.2
			c-1.5,0.6-3.1,1-4.9,1c-2.1,0-3.9-0.5-5.2-1.6c-1.4-1.1-2-2.4-2-4.1c0-1.8,0.7-3.2,2-4.1c1.3-1,3.1-1.6,5.3-1.8L238.2,347.3z
			 M230.1,356c0.8,0.5,1.8,0.8,2.9,0.8c1.4,0,2.7-0.3,4-0.8c2.2-0.9,3.2-2.3,3.2-4.3v-2.6c-0.5,0.3-1.1,0.5-1.8,0.6
			c-0.7,0.2-1.5,0.3-2.2,0.4l-2.3,0.3c-1.4,0.2-2.5,0.4-3.2,0.7c-1.2,0.6-1.8,1.5-1.8,2.7C228.9,354.8,229.3,355.5,230.1,356z"/>
		<path d="M255.3,332.5h3.8v9.6c0.9-0.9,1.9-1.6,3-2.1c1.2-0.5,2.5-0.7,3.8-0.7c2.9,0,5.2,0.8,7,2.5s2.7,4.1,2.7,7.3
			c0,3-0.9,5.6-2.7,7.6s-4.2,3-7.4,3c-1.8,0-3.2-0.4-4.5-1.1c-0.7-0.4-1.5-1.1-2.3-2v2.5h-3.6V332.5z M270.2,354.6
			c1-1.4,1.6-3.2,1.6-5.5c0-2-0.5-3.7-1.6-5c-1-1.3-2.6-2-4.6-2c-1.8,0-3.3,0.5-4.7,1.6s-2,2.9-2,5.4c0,1.8,0.3,3.3,0.8,4.4
			c1,2.1,2.9,3.2,5.7,3.2C267.6,356.7,269.1,356,270.2,354.6z"/>
		<path d="M285.6,332.6h3.9v26.4h-3.9V332.6z"/>
		<path d="M314.7,340.3c1.5,0.6,2.7,1.5,3.5,2.5c0.8,1,1.3,2.1,1.5,3.4c0.2,0.9,0.3,2.3,0.3,4.2h-16.8c0.1,2,0.6,3.5,1.6,4.7
			c1,1.2,2.6,1.8,4.8,1.8c2,0,3.6-0.6,4.8-1.7c0.7-0.6,1.1-1.4,1.4-2.3h3.8c-0.1,0.7-0.4,1.5-1,2.4c-0.6,0.9-1.2,1.6-1.9,2.1
			c-1.2,1-2.6,1.6-4.3,1.9c-0.9,0.2-2,0.3-3.1,0.3c-2.9,0-5.3-0.9-7.3-2.6c-2-1.7-3-4.2-3-7.3c0-3.1,1-5.6,3-7.5
			c2-1.9,4.6-2.9,7.8-2.9C311.6,339.3,313.2,339.6,314.7,340.3z M316.1,347.8c-0.2-1.4-0.5-2.5-1.1-3.4c-1.1-1.6-2.8-2.3-5.3-2.3
			c-1.8,0-3.2,0.5-4.4,1.6s-1.8,2.4-1.9,4.1H316.1z"/>
		<path d="M371.6,334.5c2.2,1.8,3.4,3.8,3.6,6h-4.2c-0.5-1.7-1.4-3-2.8-4c-1.4-1-3.3-1.5-5.9-1.5c-3.1,0-5.5,0.9-7.4,2.7
			c-1.9,1.8-2.8,4.6-2.8,8.4c0,3.1,0.8,5.6,2.5,7.5s4.2,2.9,7.6,2.9c3.1,0,5.5-1,7.1-3c0.9-1.1,1.5-2.5,1.9-4.2h4.2
			c-0.4,2.8-1.6,5.1-3.7,7c-2.5,2.3-5.8,3.4-10.1,3.4c-3.6,0-6.7-0.9-9.2-2.8c-3.2-2.5-4.9-6.2-4.9-11.4c0-3.9,1.2-7.1,3.7-9.6
			c2.6-2.7,6.3-4.1,10.9-4.1C366.4,331.9,369.4,332.7,371.6,334.5z"/>
		<path d="M385.5,339.7h3.7v3.3c0.3-0.6,1-1.4,2.2-2.4c1.2-0.9,2.5-1.4,4.1-1.4c0.1,0,0.2,0,0.4,0s0.5,0,0.9,0.1v3.4
			c-0.2,0-0.4-0.1-0.6-0.1s-0.4,0-0.6,0c-2,0-3.5,0.5-4.5,1.6c-1,1-1.6,2.3-1.6,3.6v11.1h-3.9V339.7z"/>
		<path d="M419.2,340.3c1.5,0.6,2.7,1.5,3.5,2.5c0.8,1,1.3,2.1,1.5,3.4c0.2,0.9,0.3,2.3,0.3,4.2h-16.8c0.1,2,0.6,3.5,1.6,4.7
			c1,1.2,2.6,1.8,4.8,1.8c2,0,3.6-0.6,4.8-1.7c0.7-0.6,1.1-1.4,1.4-2.3h3.8c-0.1,0.7-0.4,1.5-1,2.4c-0.6,0.9-1.2,1.6-1.9,2.1
			c-1.2,1-2.6,1.6-4.3,1.9c-0.9,0.2-2,0.3-3.1,0.3c-2.9,0-5.3-0.9-7.3-2.6c-2-1.7-3-4.2-3-7.3c0-3.1,1-5.6,3-7.5
			c2-1.9,4.6-2.9,7.8-2.9C416.1,339.3,417.7,339.6,419.2,340.3z M420.6,347.8c-0.2-1.4-0.5-2.5-1.1-3.4c-1.1-1.6-2.8-2.3-5.3-2.3
			c-1.8,0-3.2,0.5-4.4,1.6s-1.8,2.4-1.9,4.1H420.6z"/>
		<path d="M446.7,347.3c0.9-0.1,1.5-0.4,1.8-0.9c0.2-0.3,0.3-0.7,0.3-1.2c0-1.1-0.5-1.9-1.4-2.4c-0.9-0.5-2.3-0.7-4-0.7
			c-2,0-3.5,0.5-4.3,1.4c-0.5,0.5-0.8,1.3-0.9,2.3h-3.6c0.1-2.4,1-4,2.8-5c1.8-0.9,3.8-1.4,6.2-1.4c2.7,0,4.9,0.4,6.6,1.3
			c1.7,0.9,2.5,2.2,2.5,4v11.1c0,0.3,0.1,0.6,0.2,0.8c0.2,0.2,0.5,0.3,1,0.3c0.2,0,0.4,0,0.6,0c0.2,0,0.4,0,0.7-0.1v2.4
			c-0.6,0.1-1.1,0.2-1.4,0.3c-0.3,0-0.7,0.1-1.3,0.1c-1.3,0-2.3-0.4-2.9-1.2c-0.3-0.4-0.5-1-0.7-1.8c-0.8,0.9-1.9,1.6-3.4,2.2
			c-1.5,0.6-3.1,1-4.9,1c-2.1,0-3.9-0.5-5.2-1.6c-1.4-1.1-2-2.4-2-4.1c0-1.8,0.7-3.2,2-4.1c1.3-1,3.1-1.6,5.3-1.8L446.7,347.3z
			 M438.5,356c0.8,0.5,1.8,0.8,2.9,0.8c1.4,0,2.7-0.3,4-0.8c2.2-0.9,3.2-2.3,3.2-4.3v-2.6c-0.5,0.3-1.1,0.5-1.8,0.6
			c-0.7,0.2-1.5,0.3-2.2,0.4l-2.3,0.3c-1.4,0.2-2.5,0.4-3.2,0.7c-1.2,0.6-1.8,1.5-1.8,2.7C437.3,354.8,437.7,355.5,438.5,356z"/>
		<path d="M464.3,334.4h3.9v5.4h3.7v2.6h-3.7v12.5c0,0.7,0.3,1.1,0.8,1.3c0.3,0.1,0.8,0.2,1.5,0.2c0.2,0,0.4,0,0.6,0
			c0.2,0,0.5,0,0.8-0.1v2.6c-0.4,0.1-0.9,0.2-1.4,0.2s-1,0.1-1.6,0.1c-1.8,0-3-0.4-3.7-1.2c-0.6-0.8-1-1.8-1-3v-12.7h-3.1v-2.6h3.1
			V334.4z"/>
		<path d="M481,332.6h3.9v3.7H481V332.6z M481,339.8h3.9v19.1H481V339.8z"/>
		<path d="M498,339.7l6.2,15.7l6.4-15.7h4.2l-8.7,19.2H502l-8.5-19.2H498z"/>
		<path d="M536.7,340.3c1.5,0.6,2.7,1.5,3.5,2.5c0.8,1,1.3,2.1,1.5,3.4c0.2,0.9,0.3,2.3,0.3,4.2h-16.8c0.1,2,0.6,3.5,1.6,4.7
			c1,1.2,2.6,1.8,4.8,1.8c2,0,3.6-0.6,4.8-1.7c0.7-0.6,1.1-1.4,1.4-2.3h3.8c-0.1,0.7-0.4,1.5-1,2.4c-0.6,0.9-1.2,1.6-1.9,2.1
			c-1.2,1-2.6,1.6-4.3,1.9c-0.9,0.2-2,0.3-3.1,0.3c-2.9,0-5.3-0.9-7.3-2.6c-2-1.7-3-4.2-3-7.3c0-3.1,1-5.6,3-7.5
			c2-1.9,4.6-2.9,7.8-2.9C533.6,339.3,535.2,339.6,536.7,340.3z M538.1,347.8c-0.2-1.4-0.5-2.5-1.1-3.4c-1.1-1.6-2.8-2.3-5.3-2.3
			c-1.8,0-3.2,0.5-4.4,1.6s-1.8,2.4-1.9,4.1H538.1z"/>
		<path d="M574.1,350.4c0.1,1.5,0.5,2.7,1.2,3.6c1.4,1.7,3.8,2.6,7.2,2.6c1.5,0,3-0.2,4.2-0.6c2.5-0.7,3.7-2.1,3.7-4
			c0-1.4-0.5-2.5-1.6-3.1c-1.1-0.6-2.7-1.1-5-1.6l-4.2-0.8c-2.7-0.5-4.6-1.1-5.8-1.7c-1.9-1.1-2.9-2.7-2.9-4.9c0-2.4,1-4.3,2.9-5.8
			c1.9-1.5,4.6-2.3,8.1-2.3c3.2,0,6,0.7,8.2,2c2.3,1.3,3.4,3.5,3.4,6.4h-4c-0.2-1.4-0.6-2.5-1.3-3.2c-1.3-1.4-3.4-2.1-6.4-2.1
			c-2.4,0-4.2,0.4-5.2,1.3c-1.1,0.9-1.6,1.9-1.6,3.1c0,1.3,0.6,2.2,1.9,2.8c0.8,0.4,2.7,0.9,5.6,1.4l4.3,0.8c2.1,0.4,3.7,1,4.8,1.7
			c1.9,1.2,2.9,3,2.9,5.4c0,2.9-1.2,5-3.7,6.3s-5.4,1.9-8.7,1.9c-3.8,0-6.8-0.8-9-2.5c-2.2-1.7-3.2-3.9-3.2-6.8H574.1z"/>
		<path d="M619.3,340.3c1.5,0.6,2.7,1.5,3.5,2.5c0.8,1,1.3,2.1,1.5,3.4c0.2,0.9,0.3,2.3,0.3,4.2h-16.8c0.1,2,0.6,3.5,1.6,4.7
			c1,1.2,2.6,1.8,4.8,1.8c2,0,3.6-0.6,4.8-1.7c0.7-0.6,1.1-1.4,1.4-2.3h3.8c-0.1,0.7-0.4,1.5-1,2.4c-0.6,0.9-1.2,1.6-1.9,2.1
			c-1.2,1-2.6,1.6-4.3,1.9c-0.9,0.2-2,0.3-3.1,0.3c-2.9,0-5.3-0.9-7.3-2.6c-2-1.7-3-4.2-3-7.3c0-3.1,1-5.6,3-7.5
			c2-1.9,4.6-2.9,7.8-2.9C616.2,339.3,617.7,339.6,619.3,340.3z M620.6,347.8c-0.2-1.4-0.5-2.5-1.1-3.4c-1.1-1.6-2.8-2.3-5.3-2.3
			c-1.8,0-3.2,0.5-4.4,1.6s-1.8,2.4-1.9,4.1H620.6z"/>
		<path d="M634.6,339.7h3.7v3.3c0.3-0.6,1-1.4,2.2-2.4c1.2-0.9,2.5-1.4,4.1-1.4c0.1,0,0.2,0,0.4,0c0.2,0,0.5,0,0.9,0.1v3.4
			c-0.2,0-0.4-0.1-0.6-0.1c-0.2,0-0.4,0-0.6,0c-2,0-3.5,0.5-4.5,1.6c-1,1-1.6,2.3-1.6,3.6v11.1h-3.9V339.7z"/>
		<path d="M657.7,339.7l6.2,15.7l6.4-15.7h4.2l-8.7,19.2h-4.1l-8.5-19.2H657.7z"/>
		<path d="M683.1,332.6h3.9v3.7h-3.9V332.6z M683.1,339.8h3.9v19.1h-3.9V339.8z"/>
		<path d="M713.5,340.7c1.6,1.1,2.6,2.9,2.9,5.4h-3.8c-0.2-1.2-0.8-2.2-1.6-3c-0.8-0.8-2.1-1.2-3.9-1.2c-2.5,0-4.2,1-5.3,3
			c-0.7,1.3-1,2.9-1,4.8c0,1.9,0.5,3.5,1.5,4.9s2.5,2,4.6,2c1.6,0,2.9-0.4,3.8-1.2c0.9-0.8,1.6-1.9,2-3.4h3.8
			c-0.4,2.5-1.5,4.4-3.2,5.6s-3.9,1.8-6.6,1.8c-3,0-5.4-0.9-7.2-2.8c-1.8-1.8-2.7-4.1-2.7-6.9c0-3.4,1-6,3-7.9
			c2-1.9,4.5-2.8,7.5-2.8C709.7,339.2,711.8,339.7,713.5,340.7z"/>
		<path d="M740.1,340.3c1.5,0.6,2.7,1.5,3.5,2.5c0.8,1,1.3,2.1,1.5,3.4c0.2,0.9,0.3,2.3,0.3,4.2h-16.8c0.1,2,0.6,3.5,1.6,4.7
			c1,1.2,2.6,1.8,4.8,1.8c2,0,3.6-0.6,4.8-1.7c0.7-0.6,1.1-1.4,1.4-2.3h3.8c-0.1,0.7-0.4,1.5-1,2.4c-0.6,0.9-1.2,1.6-1.9,2.1
			c-1.2,1-2.6,1.6-4.3,1.9c-0.9,0.2-2,0.3-3.1,0.3c-2.9,0-5.3-0.9-7.3-2.6c-2-1.7-3-4.2-3-7.3c0-3.1,1-5.6,3-7.5
			c2-1.9,4.6-2.9,7.8-2.9C737,339.3,738.6,339.6,740.1,340.3z M741.5,347.8c-0.2-1.4-0.5-2.5-1.1-3.4c-1.1-1.6-2.8-2.3-5.3-2.3
			c-1.8,0-3.2,0.5-4.4,1.6s-1.8,2.4-1.9,4.1H741.5z"/>
		<path d="M757.7,352.9c0.1,1.1,0.4,1.9,1,2.5c1,1,2.7,1.6,5.2,1.6c1.5,0,2.8-0.3,3.9-0.8s1.7-1.3,1.7-2.4c0-0.8-0.4-1.5-1.3-1.9
			c-0.6-0.3-1.7-0.6-3.4-0.9l-3.1-0.6c-2-0.4-3.5-0.9-4.4-1.4c-1.7-0.9-2.5-2.1-2.5-3.6c0-1.8,0.8-3.3,2.4-4.4
			c1.6-1.1,3.7-1.7,6.4-1.7c3.5,0,6.1,0.9,7.6,2.5c1,1.1,1.4,2.2,1.4,3.5h-3.7c-0.1-0.7-0.4-1.4-0.9-2c-0.9-0.8-2.5-1.3-4.7-1.3
			c-1.5,0-2.6,0.2-3.4,0.7s-1.2,1.1-1.2,1.8c0,0.8,0.5,1.5,1.5,2c0.6,0.3,1.4,0.6,2.6,0.8l2.6,0.5c2.8,0.6,4.7,1.1,5.7,1.6
			c1.5,0.8,2.3,2.1,2.3,3.9c0,1.7-0.8,3.2-2.4,4.4c-1.6,1.2-4,1.9-7.2,1.9c-3.5,0-5.9-0.6-7.4-1.9c-1.4-1.3-2.2-2.9-2.3-4.8H757.7z"
			/>
	</g>
</g>
</svg>
