<?xml version="1.0" encoding="utf-8"?>
<!-- Generator: Adobe Illustrator 21.1.0, SVG Export Plug-In . SVG Version: 6.00 Build 0)  -->
<svg version="1.1" id="Layer_1" xmlns="http://www.w3.org/2000/svg" xmlns:xlink="http://www.w3.org/1999/xlink" x="0px" y="0px"
	 viewBox="0 0 172 173" style="enable-background:new 0 0 172 173;" xml:space="preserve">
<style type="text/css">
	.st0{fill:#ED1C24;}
	.st1{fill:#414042;}
	.st2{fill:#F7941E;}
</style>
<g>
	<path class="st1" d="M94.3,173c-3-37.6-6-75.2-9-112.8C106.6,49.3,127.4,38.6,148,28c21,16.6,29.8,55.3,19.9,86.3
		C157.5,146.5,126.7,171.2,94.3,173z"/>
	<path class="st2" d="M0.5,100.6c0.4,32.4,40.2,71.8,72.2,71.5c-2-35-3.9-70-5.9-105.9L0.5,100.6z"/>
	<path class="st0" d="M128.8,11.5C85.3,34.1,42.8,56.1,0.1,78.3c-1.4-18.4,13.4-49.6,39.4-65C68.3-3.9,97.8-4.3,128.8,11.5z"/>
</g>
</svg>
